<svg width="49" height="49" viewBox="0 0 49 49" fill="none" xmlns="http://www.w3.org/2000/svg">
<g id="apple">
<path id="bg" d="M45.9375 24.5C45.9375 36.3335 36.3442 45.9375 24.5 45.9375C12.6558 45.9375 3.0625 36.3335 3.0625 24.5C3.0625 12.6558 12.6558 3.0625 24.5 3.0625C36.3442 3.0625 45.9375 12.6558 45.9375 24.5Z" fill="#283544"/>
<path id="apple_2" d="M34.5482 19.0754C34.4312 19.1436 31.6465 20.5838 31.6465 23.777C31.7777 27.4187 35.1607 28.6958 35.2188 28.6958C35.1607 28.7641 34.708 30.4356 33.367 32.1877C32.3027 33.697 31.1215 35.2188 29.3277 35.2188C27.6214 35.2188 27.0089 34.2128 25.0402 34.2128C22.9259 34.2128 22.3277 35.2188 20.7089 35.2188C18.9152 35.2188 17.6464 33.6155 16.5241 32.1204C15.0661 30.1635 13.8268 27.0926 13.7831 24.1439C13.7536 22.5815 14.0751 21.0455 14.8911 19.741C16.0429 17.9197 18.0991 16.6833 20.3447 16.6426C22.0652 16.5885 23.5964 17.7433 24.6464 17.7433C25.6527 17.7433 27.5339 16.6426 29.6625 16.6426C30.5812 16.6435 33.0312 16.9014 34.5482 19.0754ZM24.5009 16.3306C24.1947 14.9037 25.0402 13.4768 25.8277 12.5666C26.8339 11.4659 28.4232 10.7188 29.7937 10.7188C29.8812 12.1456 29.3268 13.5451 28.3357 14.5643C27.4464 15.665 25.9152 16.4937 24.5009 16.3306Z" fill="white"/>
</g>
</svg>
