<svg width="38" height="38" viewBox="0 0 38 38" fill="none" xmlns="http://www.w3.org/2000/svg">
<g id="google" style="mix-blend-mode:darken">
<path id="vector" d="M35.6267 19.3692C35.6267 18.0023 35.5135 17.0048 35.2685 15.9704H19.341V22.14H28.6901C28.5017 23.6733 27.4838 25.9823 25.2219 27.5339L25.1902 27.7404L30.2262 31.5637L30.5751 31.5979C33.7794 28.6977 35.6267 24.4306 35.6267 19.3692Z" fill="#4285F4"/>
<path id="vector_2" d="M19.3399 35.625C23.9202 35.625 27.7654 34.1471 30.574 31.598L25.2208 27.534C23.7883 28.513 21.8656 29.1965 19.3399 29.1965C14.8538 29.1965 11.0464 26.2964 9.68908 22.2879L9.49014 22.3045L4.25365 26.2761L4.18517 26.4626C6.97481 31.8935 12.705 35.625 19.3399 35.625Z" fill="#34A853"/>
<path id="vector_3" d="M9.69007 22.288C9.33195 21.2536 9.12469 20.1452 9.12469 18.9999C9.12469 17.8546 9.33195 16.7463 9.67123 15.7119L9.66175 15.4916L4.35962 11.4562L4.18614 11.5371C3.03639 13.7907 2.37666 16.3215 2.37666 18.9999C2.37666 21.6784 3.03639 24.209 4.18614 26.4627L9.69007 22.288Z" fill="#FBBC05"/>
<path id="vector_4" d="M19.34 8.80329C22.5255 8.80329 24.6742 10.1518 25.8995 11.2786L30.6872 6.6975C27.7468 4.01903 23.9203 2.375 19.34 2.375C12.705 2.375 6.97482 6.10636 4.18517 11.5371L9.67027 15.7119C11.0464 11.7035 14.8539 8.80329 19.34 8.80329Z" fill="#EB4335"/>
</g>
</svg>
